<?xml version="1.0" encoding="UTF-8" standalone="no"?> <svg id="Layer_1" data-name="Layer 1" xmlns="http://www.w3.org/2000/svg" viewBox="0 0 512 512"><title>Out of Stock</title><path d="M251.229,433.125l-6.161,3.083L64,355.734V144.414l177,78.667a10.673,10.673,0,0,0,8.667,0l177-78.667v90.253a10.667,10.667,0,0,0,21.333,0V128a10.669,10.669,0,0,0-6.333-9.747l-192-85.333a10.687,10.687,0,0,0-8.667,0L49,118.253A10.669,10.669,0,0,0,42.667,128V362.667A10.665,10.665,0,0,0,49,372.411l192,85.333a10.663,10.663,0,0,0,9.1-.2l10.667-5.333a10.668,10.668,0,1,0-9.542-19.083Zm-5.9-231.464L169.867,168.12,335,94.729c.19-.085.348-.209.53-.3L411.069,128Zm0-147.323L309.34,82.786,145,155.826a10.525,10.525,0,0,0-1.224.7L79.6,128Z"/><path d="M362.667,245.333A106.667,106.667,0,1,0,469.333,352,106.786,106.786,0,0,0,362.667,245.333Zm0,192A85.333,85.333,0,1,1,448,352,85.431,85.431,0,0,1,362.667,437.333Z"/><path d="M402.208,312.458a10.663,10.663,0,0,0-15.083,0l-24.458,24.458-24.458-24.458a10.666,10.666,0,0,0-15.083,15.083L347.583,352l-24.458,24.458a10.666,10.666,0,1,0,15.083,15.083l24.458-24.458,24.458,24.458a10.666,10.666,0,1,0,15.083-15.083L377.75,352l24.458-24.458A10.663,10.663,0,0,0,402.208,312.458Z"/></svg>