<?xml version="1.0" encoding="iso-8859-1"?>
<!-- Generator: Adobe Illustrator 21.0.0, SVG Export Plug-In . SVG Version: 6.00 Build 0)  -->
<svg version="1.1" id="Layer_1" xmlns="http://www.w3.org/2000/svg" xmlns:xlink="http://www.w3.org/1999/xlink" x="0px" y="0px"
	 viewBox="0 0 24 24" enable-background="new 0 0 24 24" xml:space="preserve">
<path fill="#303C42" d="M12,0C5.3833008,0,0,5.3833008,0,12s5.3833008,12,12,12s12-5.3833008,12-12S18.6166992,0,12,0z
	 M16.8534546,15.4393921c0.1953125,0.1952515,0.1953125,0.5118408,0,0.7070923l-0.7069092,0.7069702
	c-0.1953125,0.1952515-0.5118408,0.1952515-0.7071533,0L12,13.4140625l-3.4393921,3.4393921
	c-0.1953125,0.1952515-0.5118408,0.1952515-0.7071533,0l-0.7069092-0.7069702c-0.1953125-0.1952515-0.1953125-0.5118408,0-0.7070923
	l3.4393921-3.4394531L7.1465454,8.5605469c-0.1953125-0.1952515-0.1953125-0.5118408,0-0.7070923l0.7069092-0.7069702
	c0.1953125-0.1952515,0.5118408-0.1952515,0.7071533,0L12,10.5858765l3.4393921-3.4393921
	c0.1953125-0.1952515,0.5118408-0.1952515,0.7071533,0l0.7069092,0.7069702c0.1953125,0.1952515,0.1953125,0.5118408,0,0.7070923
	l-3.4393921,3.4393921L16.8534546,15.4393921z"/>
<g>
</g>
<g>
</g>
<g>
</g>
<g>
</g>
<g>
</g>
<g>
</g>
<g>
</g>
<g>
</g>
<g>
</g>
<g>
</g>
<g>
</g>
<g>
</g>
<g>
</g>
<g>
</g>
<g>
</g>
</svg>
